<?xml version="1.0" standalone="no"?>
<!DOCTYPE svg PUBLIC "-//W3C//DTD SVG 20010904//EN"
 "http://www.w3.org/TR/2001/REC-SVG-20010904/DTD/svg10.dtd">
<svg version="1.0" xmlns="http://www.w3.org/2000/svg"
 width="512.000000pt" height="512.000000pt" viewBox="0 0 512.000000 512.000000"
 preserveAspectRatio="xMidYMid meet">

<g transform="translate(0.000000,512.000000) scale(0.100000,-0.100000)"
fill="#000000" stroke="none">
<path d="M1372 4782 c-67 -24 -119 -66 -157 -127 -28 -45 -30 -55 -30 -144 l0
-96 339 -760 c187 -418 362 -812 390 -875 51 -114 51 -115 51 -220 l0 -105
-389 -874 c-388 -871 -389 -874 -394 -952 -4 -74 -2 -84 28 -145 55 -112 167
-173 297 -161 107 10 146 36 448 291 512 433 1887 1689 1937 1768 66 108 65
251 -3 360 -40 62 -996 943 -1649 1519 -285 251 -563 479 -618 506 -72 35
-175 41 -250 15z"/>
</g>
</svg>
